<svg width="680" height="1320" viewBox="0 0 680 1320" xmlns="http://www.w3.org/2000/svg" role="img">
<title>Детализация шагов 3-4-5: AI-генерация названий, Title и Blurb</title>
<desc>Две зоны генерации: названия от трёх агентов с отбором судьёй, затем пары Title и Blurb для каждого названия с подмешиванием SEO-ядра.</desc>
<defs>
<marker id="arrow" viewBox="0 0 10 10" refX="8" refY="5" markerWidth="6" markerHeight="6" orient="auto-start-reverse"><path d="M2 1L8 5L2 9" fill="none" stroke="context-stroke" stroke-width="1.5" stroke-linecap="round" stroke-linejoin="round"/></marker>
<style>
text { font-family: Arial, "Helvetica Neue", sans-serif; }
.t { font-size: 14px; fill: #2C2C2A; }
.ts { font-size: 12px; fill: #5F5E5A; }
.th { font-size: 14px; font-weight: 500; fill: #2C2C2A; }
.arr { stroke: #888780; stroke-width: 1.5; fill: none; }
.bg { fill: #FFFFFF; }
</style>
</defs>
<rect class="bg" x="0" y="0" width="680" height="1320"/>

<text class="th" x="340" y="28" text-anchor="middle">Шаги 3-4-5: AI-генерация</text>

<rect x="240" y="46" width="200" height="50" rx="10" fill="#E6F1FB" stroke="#185FA5" stroke-width="0.5"/>
<text class="th" x="340" y="65" text-anchor="middle" dominant-baseline="central" fill="#0C447C">Вход: seed-фразы</text>
<text class="ts" x="340" y="82" text-anchor="middle" dominant-baseline="central" fill="#185FA5">3-6 названий из топ-продаж</text>

<rect x="30" y="116" width="620" height="560" rx="20" fill="none" stroke="#185FA5" stroke-width="0.5" stroke-dasharray="6 4"/>
<text class="th" x="50" y="140" dominant-baseline="central" fill="#185FA5">Шаги 3-4: Генерация названий</text>

<line x1="340" y1="96" x2="340" y2="160" class="arr" marker-end="url(#arrow)"/>
<line x1="340" y1="160" x2="130" y2="190" class="arr" marker-end="url(#arrow)"/>
<line x1="340" y1="160" x2="340" y2="190" class="arr" marker-end="url(#arrow)"/>
<line x1="340" y1="160" x2="550" y2="190" class="arr" marker-end="url(#arrow)"/>

<rect x="50" y="190" width="170" height="64" rx="10" fill="#E1F5EE" stroke="#0F6E56" stroke-width="0.5"/>
<text class="th" x="135" y="210" text-anchor="middle" dominant-baseline="central" fill="#085041">Агент A</text>
<text class="ts" x="135" y="230" text-anchor="middle" dominant-baseline="central" fill="#0F6E56">Креативщик</text>
<text class="ts" x="135" y="244" text-anchor="middle" dominant-baseline="central" fill="#0F6E56">6 вариантов</text>

<rect x="255" y="190" width="170" height="64" rx="10" fill="#E1F5EE" stroke="#0F6E56" stroke-width="0.5"/>
<text class="th" x="340" y="210" text-anchor="middle" dominant-baseline="central" fill="#085041">Агент B</text>
<text class="ts" x="340" y="230" text-anchor="middle" dominant-baseline="central" fill="#0F6E56">Маркетолог</text>
<text class="ts" x="340" y="244" text-anchor="middle" dominant-baseline="central" fill="#0F6E56">6 вариантов</text>

<rect x="460" y="190" width="170" height="64" rx="10" fill="#E1F5EE" stroke="#0F6E56" stroke-width="0.5"/>
<text class="th" x="545" y="210" text-anchor="middle" dominant-baseline="central" fill="#085041">Агент C</text>
<text class="ts" x="545" y="230" text-anchor="middle" dominant-baseline="central" fill="#0F6E56">Провокатор</text>
<text class="ts" x="545" y="244" text-anchor="middle" dominant-baseline="central" fill="#0F6E56">6 вариантов</text>

<line x1="135" y1="254" x2="340" y2="290" class="arr" marker-end="url(#arrow)"/>
<line x1="340" y1="254" x2="340" y2="290" class="arr" marker-end="url(#arrow)"/>
<line x1="545" y1="254" x2="340" y2="290" class="arr" marker-end="url(#arrow)"/>

<rect x="220" y="290" width="240" height="50" rx="10" fill="#E6F1FB" stroke="#185FA5" stroke-width="0.5"/>
<text class="th" x="340" y="309" text-anchor="middle" dominant-baseline="central" fill="#0C447C">18 кандидатов</text>
<text class="ts" x="340" y="326" text-anchor="middle" dominant-baseline="central" fill="#185FA5">Объединённый пул</text>

<line x1="340" y1="340" x2="340" y2="374" class="arr" marker-end="url(#arrow)"/>
<rect x="220" y="374" width="240" height="64" rx="10" fill="#F1EFE8" stroke="#5F5E5A" stroke-width="0.5"/>
<text class="th" x="340" y="394" text-anchor="middle" dominant-baseline="central" fill="#2C2C2A">Префильтр</text>
<text class="ts" x="340" y="414" text-anchor="middle" dominant-baseline="central" fill="#444441">Дедупликация, длина,</text>
<text class="ts" x="340" y="428" text-anchor="middle" dominant-baseline="central" fill="#444441">формальные правила</text>

<line x1="340" y1="438" x2="340" y2="472" class="arr" marker-end="url(#arrow)"/>
<rect x="180" y="472" width="320" height="120" rx="10" fill="#FAEEDA" stroke="#854F0B" stroke-width="0.5"/>
<text class="th" x="340" y="492" text-anchor="middle" dominant-baseline="central" fill="#633806">Судья: оценка по 6 критериям</text>
<text class="ts" x="340" y="514" text-anchor="middle" dominant-baseline="central" fill="#854F0B">hook · clarity · originality</text>
<text class="ts" x="340" y="532" text-anchor="middle" dominant-baseline="central" fill="#854F0B">brevity · gift appeal · safety</text>
<text class="ts" x="340" y="558" text-anchor="middle" dominant-baseline="central" fill="#854F0B">safety менее 7 — отсев</text>
<text class="ts" x="340" y="576" text-anchor="middle" dominant-baseline="central" fill="#854F0B">ранжирование по сумме весов</text>

<line x1="340" y1="592" x2="340" y2="626" class="arr" marker-end="url(#arrow)"/>
<rect x="240" y="626" width="200" height="50" rx="10" fill="#EAF3DE" stroke="#3B6D11" stroke-width="0.5"/>
<text class="th" x="340" y="645" text-anchor="middle" dominant-baseline="central" fill="#27500A">Top-6 названий</text>
<text class="ts" x="340" y="662" text-anchor="middle" dominant-baseline="central" fill="#3B6D11">Победители этапа 1</text>

<line x1="340" y1="676" x2="340" y2="720" class="arr" marker-end="url(#arrow)"/>
<text class="ts" x="430" y="700" text-anchor="middle">цикл по каждому из 6</text>

<rect x="30" y="720" width="620" height="540" rx="20" fill="none" stroke="#3B6D11" stroke-width="0.5" stroke-dasharray="6 4"/>
<text class="th" x="50" y="744" dominant-baseline="central" fill="#3B6D11">Шаг 5: Title + Blurb для каждого названия</text>

<rect x="240" y="760" width="200" height="50" rx="10" fill="#EAF3DE" stroke="#3B6D11" stroke-width="0.5"/>
<text class="th" x="340" y="779" text-anchor="middle" dominant-baseline="central" fill="#27500A">Название #N</text>
<text class="ts" x="340" y="796" text-anchor="middle" dominant-baseline="central" fill="#3B6D11">одно из top-6</text>

<line x1="340" y1="810" x2="130" y2="850" class="arr" marker-end="url(#arrow)"/>
<line x1="340" y1="810" x2="340" y2="850" class="arr" marker-end="url(#arrow)"/>
<line x1="340" y1="810" x2="550" y2="850" class="arr" marker-end="url(#arrow)"/>

<rect x="50" y="850" width="170" height="72" rx="10" fill="#E1F5EE" stroke="#0F6E56" stroke-width="0.5"/>
<text class="th" x="135" y="870" text-anchor="middle" dominant-baseline="central" fill="#085041">Агент A</text>
<text class="ts" x="135" y="890" text-anchor="middle" dominant-baseline="central" fill="#0F6E56">2 пары</text>
<text class="ts" x="135" y="906" text-anchor="middle" dominant-baseline="central" fill="#0F6E56">Title + Blurb</text>

<rect x="255" y="850" width="170" height="72" rx="10" fill="#E1F5EE" stroke="#0F6E56" stroke-width="0.5"/>
<text class="th" x="340" y="870" text-anchor="middle" dominant-baseline="central" fill="#085041">Агент B</text>
<text class="ts" x="340" y="890" text-anchor="middle" dominant-baseline="central" fill="#0F6E56">2 пары</text>
<text class="ts" x="340" y="906" text-anchor="middle" dominant-baseline="central" fill="#0F6E56">Title + Blurb</text>

<rect x="460" y="850" width="170" height="72" rx="10" fill="#E1F5EE" stroke="#0F6E56" stroke-width="0.5"/>
<text class="th" x="545" y="870" text-anchor="middle" dominant-baseline="central" fill="#085041">Агент C</text>
<text class="ts" x="545" y="890" text-anchor="middle" dominant-baseline="central" fill="#0F6E56">2 пары</text>
<text class="ts" x="545" y="906" text-anchor="middle" dominant-baseline="central" fill="#0F6E56">Title + Blurb</text>

<rect x="470" y="952" width="180" height="56" rx="10" fill="#FAEEDA" stroke="#854F0B" stroke-width="0.5"/>
<text class="th" x="560" y="972" text-anchor="middle" dominant-baseline="central" fill="#633806">SEO-ядро</text>
<text class="ts" x="560" y="990" text-anchor="middle" dominant-baseline="central" fill="#854F0B">ключевые слова</text>

<path d="M470 980 L135 980 L135 922" class="arr" marker-end="url(#arrow)" fill="none" stroke-dasharray="4 4"/>
<path d="M560 952 L560 935 L340 935 L340 922" class="arr" marker-end="url(#arrow)" fill="none" stroke-dasharray="4 4"/>
<path d="M650 980 L545 980 L545 922" class="arr" marker-end="url(#arrow)" fill="none" stroke-dasharray="4 4"/>

<line x1="135" y1="922" x2="340" y2="1042" class="arr" marker-end="url(#arrow)"/>
<line x1="340" y1="922" x2="340" y2="1042" class="arr" marker-end="url(#arrow)"/>
<line x1="545" y1="922" x2="340" y2="1042" class="arr" marker-end="url(#arrow)"/>

<rect x="220" y="1042" width="240" height="50" rx="10" fill="#E6F1FB" stroke="#185FA5" stroke-width="0.5"/>
<text class="th" x="340" y="1061" text-anchor="middle" dominant-baseline="central" fill="#0C447C">6 пар Title + Blurb</text>
<text class="ts" x="340" y="1078" text-anchor="middle" dominant-baseline="central" fill="#185FA5">кандидаты для названия #N</text>

<line x1="340" y1="1092" x2="340" y2="1126" class="arr" marker-end="url(#arrow)"/>
<rect x="180" y="1126" width="320" height="72" rx="10" fill="#FAEEDA" stroke="#854F0B" stroke-width="0.5"/>
<text class="th" x="340" y="1146" text-anchor="middle" dominant-baseline="central" fill="#633806">Судья: пара как единое целое</text>
<text class="ts" x="340" y="1166" text-anchor="middle" dominant-baseline="central" fill="#854F0B">safety · coherence образа</text>
<text class="ts" x="340" y="1182" text-anchor="middle" dominant-baseline="central" fill="#854F0B">click appeal · conversion · scan</text>

<line x1="340" y1="1198" x2="340" y2="1232" class="arr" marker-end="url(#arrow)"/>
<rect x="220" y="1232" width="240" height="50" rx="10" fill="#EAF3DE" stroke="#3B6D11" stroke-width="0.5"/>
<text class="th" x="340" y="1251" text-anchor="middle" dominant-baseline="central" fill="#27500A">1 лучшая пара</text>
<text class="ts" x="340" y="1268" text-anchor="middle" dominant-baseline="central" fill="#3B6D11">готовый листинг для #N</text>
</svg>
